<svg width="24" height="24" viewBox="0 0 24 24" fill="none" xmlns="http://www.w3.org/2000/svg">
<path fill-rule="evenodd" clip-rule="evenodd" d="M23.3498 10.3L22.2998 9.75C22.0998 9.65 21.9498 9.5 21.8998 9.25C21.6498 8.45 21.3498 7.65 20.9498 6.9C20.8498 6.7 20.7998 6.5 20.8998 6.3L21.2998 5.15C21.3998 4.9 21.2998 4.6 21.0998 4.4L19.6498 2.95C19.4498 2.75 19.1498 2.7 18.8998 2.75L17.7498 3.15C17.5498 3.2 17.3498 3.2 17.1498 3.1C16.4498 2.7 15.6498 2.35 14.8498 2.15C14.6498 2.1 14.4498 1.95 14.3498 1.75L13.7998 0.65C13.6498 0.4 13.3998 0.25 13.1498 0.25H11.0998C10.7998 0.25 10.5498 0.4 10.4498 0.65L9.8998 1.75C9.7998 1.95 9.6498 2.1 9.3998 2.15C8.5998 2.4 7.7998 2.7 7.0998 3.1C6.8998 3.2 6.6998 3.25 6.4998 3.15L5.3498 2.75C5.0998 2.65 4.7998 2.75 4.5998 2.95L2.9498 4.4C2.7498 4.6 2.6998 4.9 2.7498 5.15L3.1498 6.3C3.1998 6.5 3.1998 6.7 3.0998 6.9C2.6998 7.65 2.3498 8.4 2.1498 9.25C2.0998 9.45 1.9498 9.65 1.7498 9.75L0.699805 10.3C0.449805 10.45 0.299805 10.7 0.299805 10.95V13C0.299805 13.3 0.449805 13.55 0.699805 13.65L1.7498 14.2C1.9498 14.3 2.0998 14.45 2.1498 14.7C2.3998 15.5 2.6998 16.3 3.0998 17.05C3.1998 17.25 3.2498 17.45 3.1498 17.65L2.7498 18.8C2.6498 19.05 2.7498 19.35 2.9498 19.55L4.3998 21C4.5998 21.2 4.8998 21.25 5.1498 21.2L6.2998 20.8C6.4998 20.75 6.6998 20.75 6.8998 20.85C7.5998 21.25 8.3998 21.6 9.1998 21.8C9.3998 21.85 9.5998 22 9.6998 22.2L10.2498 23.3C10.3998 23.55 10.6498 23.7 10.8998 23.7H12.9498C13.2498 23.7 13.4998 23.55 13.5998 23.3L14.1498 22.2C14.2498 22 14.3998 21.85 14.6498 21.8C15.4498 21.55 16.2498 21.25 16.9498 20.85C17.1498 20.75 17.3498 20.7 17.5498 20.8L18.6998 21.2C18.9498 21.3 19.2498 21.2 19.4498 21L20.8998 19.55C21.0998 19.35 21.1498 19.05 21.0998 18.8L20.6998 17.65C20.6498 17.45 20.6498 17.25 20.7498 17.05C21.1498 16.3 21.4998 15.55 21.6998 14.7C21.7498 14.5 21.8998 14.3 22.0998 14.2L23.1498 13.65C23.3998 13.5 23.5498 13.25 23.5498 13V10.95C23.7498 10.7 23.5998 10.4 23.3498 10.3ZM11.9998 20.75C7.1498 20.75 3.2498 16.85 3.2498 12C3.2498 7.15 7.1498 3.25 11.9998 3.25C16.8498 3.25 20.7498 7.15 20.7498 12C20.7498 16.85 16.8498 20.75 11.9998 20.75Z" fill="#262626"/>
</svg>
